#FILENAME=950edb0b
# xmcd CD database file
# Copyright (C) 1995-1998 Ti Kan
#
# Track frame offsets:
#	182
#	25257
#	50975
#	75145
#	106937
#	127120
#	151417
#	173222
#	199302
#	224280
#	250832
#
# Disc length: 3805 seconds
#
# Revision: 34560044
# Submitted via:  CATraxx 4.00
#
DISCID=950edb0b
DTITLE=Queensryche / Empire
TTITLE0=Best I Can
TTITLE1=The Thin Line
TTITLE2=Jet City Woman
TTITLE3=Della Brown
TTITLE4=Another Rainy Night (Without You)
TTITLE5=Empire
TTITLE6=Resistance
TTITLE7=Silent Lucidity
TTITLE8=Hand On Heart
TTITLE9=One And Only
TTITLE10=Anybody Listening?
EXTD=\nYEAR: 1999  ID3G:  17
EXTT0=he best man, \n           the best man that I can
EXTT1=he best man, \n           the best man that I can
EXTT2=he best man, \n           the best man that I can
EXTT3=he best man, \n           the best man that I can
EXTT4=he best man, \n           the best man that I can
EXTT5=he best man, \n           the best man that I can
EXTT6=he best man, \n           the best man that I can
EXTT7=he best man, \n           the best man that I can
EXTT8=he best man, \n           the best man that I can
EXTT9=he best man, \n           the best man that I can
EXTT10=can
PLAYORDER=
